# xmcd
#
# Track frame offsets: 
#        150
#        21297
#        45890
#        62820
#        82440
#        103445
#        122480
#        146205
#        166735
#        182362
#        196817
#
# Disc length: 2883 seconds
#
# Revision: 3
# Processed by: cddbd v1.5.2PL0 Copyright (c) Steve Scherf et al.
# Submitted via: ExactAudioCopy v0.95b4
#
DISCID=950b410b
DTITLE=Colin James - Bad Habits
DYEAR=1995
DGENRE=Blues
TTITLE0=Saviour
TTITLE1=Freedom
TTITLE2=Standin' on the Edge
TTITLE3=Real Stuff
TTITLE4=Better Days
TTITLE5=I Can't Hold Out
TTITLE6=Bad Habits
TTITLE7=Forty-Four
TTITLE8=Walkin' Blues
TTITLE9=Atlanta Moan
TTITLE10=Speechless
EXTD=
EXTT0=
EXTT1=
EXTT2=
EXTT3=
EXTT4=
EXTT5=
EXTT6=
EXTT7=
EXTT8=
EXTT9=
EXTT10=
PLAYORDER=
